<?xml version="1.0" encoding="utf-8"?>
<!-- Generator: Adobe Illustrator 18.0.0, SVG Export Plug-In . SVG Version: 6.00 Build 0)  -->
<!DOCTYPE svg PUBLIC "-//W3C//DTD SVG 1.1//EN" "http://www.w3.org/Graphics/SVG/1.1/DTD/svg11.dtd">
<svg version="1.1" id="Layer_1" xmlns="http://www.w3.org/2000/svg" xmlns:xlink="http://www.w3.org/1999/xlink" x="0px" y="0px"
	 viewBox="392 0 114.3 100" enable-background="new 392 0 114.3 100" xml:space="preserve">
<g id="Layer_1_1_" display="none">
	<g display="inline">
		<path fill="#2EB5E5" d="M504.4,49.8c0-7.2-9-14-22.9-18.3c3.2-14.1,1.8-25.3-4.5-28.9c-1.4-0.8-3.1-1.2-5-1.2v4.9
			c1,0,1.8,0.2,2.5,0.6c3,1.7,4.3,8.3,3.3,16.8c-0.2,2.1-0.6,4.3-1.1,6.5c-4.3-1.1-9.1-1.9-14.1-2.4c-3-4.1-6.1-7.8-9.2-11.1
			c7.2-6.7,14-10.4,18.6-10.4V1.4c-6,0-14,4.3-22,11.8c-8.1-7.5-16.1-11.8-22.2-11.8v4.9c4.6,0,11.4,3.7,18.6,10.3
			c-3.1,3.3-6.2,7-9.2,11.1c-5,0.5-9.8,1.4-14.1,2.4c-0.5-2.2-0.9-4.4-1.2-6.4c-1-8.5,0.2-15.1,3.2-16.8c0.7-0.4,1.5-0.6,2.5-0.6
			V1.5c-1.9,0-3.5,0.4-5,1.2c-6.2,3.6-7.6,14.8-4.4,28.8c-13.8,4.3-22.8,11.1-22.8,18.2c0,7.2,9,14,22.9,18.3
			c-3.2,14.1-1.8,25.3,4.5,28.9c1.4,0.8,3.1,1.2,5,1.2c6.1,0,14.1-4.3,22.2-11.9c8.1,7.5,16.1,11.8,22.2,11.8c1.9,0,3.5-0.4,5-1.2
			c6.2-3.6,7.6-14.8,4.4-28.8C495.4,63.8,504.4,57,504.4,49.8L504.4,49.8z M475.5,35c-0.8,2.9-1.8,5.8-3,8.8
			c-0.9-1.8-1.9-3.5-2.9-5.3s-2.1-3.5-3.2-5.2C469.6,33.7,472.6,34.3,475.5,35z M465.4,58.6c-1.7,3-3.5,5.8-5.3,8.5
			c-3.3,0.3-6.7,0.4-10,0.4s-6.7-0.2-10-0.4c-1.8-2.6-3.6-5.5-5.4-8.4c-1.7-2.9-3.2-5.9-4.6-8.8c1.4-3,2.9-5.9,4.6-8.8
			c1.7-3,3.5-5.8,5.3-8.5c3.3-0.3,6.7-0.4,10-0.4s6.7,0.2,10,0.4c1.8,2.6,3.6,5.5,5.4,8.4c1.7,2.9,3.2,5.9,4.6,8.8
			C468.6,52.8,467,55.7,465.4,58.6z M472.5,55.8c1.2,3,2.2,5.9,3.1,8.8c-2.9,0.7-6,1.3-9.1,1.8c1.1-1.7,2.2-3.5,3.2-5.3
			C470.7,59.3,471.6,57.5,472.5,55.8z M450.1,79.4c-2.1-2.1-4.1-4.5-6.2-7.1c2,0.1,4,0.2,6.1,0.2s4.1,0,6.2-0.2
			C454.2,74.9,452.1,77.3,450.1,79.4z M433.6,66.4c-3.1-0.5-6.2-1-9.1-1.8c0.8-2.9,1.8-5.8,3-8.8c0.9,1.8,1.9,3.5,2.9,5.3
			C431.4,62.9,432.5,64.7,433.6,66.4z M449.9,20.2c2.1,2.1,4.1,4.5,6.2,7.1c-2-0.1-4-0.2-6.1-0.2s-4.1,0-6.2,0.2
			C445.8,24.7,447.9,22.3,449.9,20.2z M433.5,33.3c-1.1,1.7-2.2,3.5-3.2,5.3s-2,3.5-2.9,5.3c-1.2-3-2.2-5.9-3.1-8.8
			C427.3,34.3,430.4,33.7,433.5,33.3z M413.5,61c-7.8-3.3-12.9-7.7-12.9-11.2s5.1-7.9,12.9-11.2c1.9-0.8,4-1.6,6.1-2.2
			c1.3,4.3,2.9,8.9,5,13.5c-2,4.6-3.7,9.1-4.9,13.4C417.5,62.6,415.4,61.8,413.5,61z M425.4,92.7c-3-1.7-4.3-8.3-3.3-16.8
			c0.2-2.1,0.6-4.3,1.1-6.5c4.3,1.1,9.1,1.9,14.1,2.4c3,4.1,6.1,7.8,9.2,11.1c-7.2,6.7-14,10.4-18.6,10.4
			C426.9,93.3,426.1,93.1,425.4,92.7z M478,75.8c1,8.5-0.2,15.1-3.2,16.8c-0.7,0.4-1.5,0.6-2.5,0.6c-4.6,0-11.4-3.7-18.6-10.3
			c3.1-3.3,6.2-7,9.2-11.1c5-0.5,9.8-1.4,14.1-2.4C477.4,71.6,477.8,73.8,478,75.8z M486.5,61c-1.9,0.8-4,1.6-6.1,2.2
			c-1.3-4.3-2.9-8.9-5-13.5c2-4.6,3.7-9.1,4.9-13.4c2.2,0.7,4.3,1.4,6.2,2.3c7.8,3.3,12.9,7.7,12.9,11.2
			C499.5,53.3,494.4,57.7,486.5,61L486.5,61z"/>
		<circle fill="#2EB5E5" cx="450" cy="49.8" r="10.1"/>
		<path fill="#2EB5E5" d="M472.1,1.4"/>
	</g>
</g>
<g id="Layer_2">
	<g>
		<path fill="#009EC9" d="M504.4,49.8c0-7.2-9-14-22.9-18.3c3.2-14.1,1.8-25.3-4.5-28.9c-1.4-0.8-3.1-1.2-5-1.2v4.9
			c1,0,1.8,0.2,2.5,0.6c3,1.7,4.3,8.3,3.3,16.8c-0.2,2.1-0.6,4.3-1.1,6.5c-4.3-1.1-9.1-1.9-14.1-2.4c-3-4.1-6.1-7.8-9.2-11.1
			c7.2-6.7,14-10.4,18.6-10.4V1.4c-6.1,0-14.1,4.3-22.2,11.9c-8.1-7.5-16.1-11.8-22.2-11.8v4.9c4.6,0,11.4,3.7,18.6,10.3
			c-3.1,3.3-6.2,7-9.2,11.1c-5,0.5-9.8,1.4-14.1,2.4c-0.5-2.2-0.9-4.4-1.2-6.4c-1-8.5,0.2-15.1,3.2-16.8c0.7-0.4,1.5-0.6,2.5-0.6
			V1.5c-1.9,0-3.5,0.4-5,1.2c-6.2,3.6-7.6,14.8-4.4,28.8c-13.8,4.3-22.8,11.1-22.8,18.2c0,7.2,9,14,22.9,18.3
			c-3.2,14.1-1.8,25.3,4.5,28.9c1.4,0.8,3.1,1.2,5,1.2c6.1,0,14.1-4.3,22.2-11.9C457.9,93.7,465.9,98,472,98c1.9,0,3.5-0.4,5-1.2
			c6.2-3.6,7.6-14.8,4.4-28.8C495.4,63.8,504.4,57,504.4,49.8L504.4,49.8z M475.5,35c-0.8,2.9-1.8,5.8-3,8.8
			c-0.9-1.8-1.9-3.5-2.9-5.3s-2.1-3.5-3.2-5.2C469.6,33.7,472.6,34.3,475.5,35z M465.4,58.6c-1.7,3-3.5,5.8-5.3,8.5
			c-3.3,0.3-6.7,0.4-10,0.4s-6.7-0.2-10-0.4c-1.8-2.6-3.6-5.5-5.4-8.4c-1.7-2.9-3.2-5.9-4.6-8.8c1.4-3,2.9-5.9,4.6-8.8
			c1.7-3,3.5-5.8,5.3-8.5c3.3-0.3,6.7-0.4,10-0.4s6.7,0.2,10,0.4c1.8,2.6,3.6,5.5,5.4,8.4c1.7,2.9,3.2,5.9,4.6,8.8
			C468.5,52.8,467,55.7,465.4,58.6z M472.5,55.8c1.2,3,2.2,5.9,3.1,8.8c-2.9,0.7-6,1.3-9.1,1.8c1.1-1.7,2.2-3.5,3.2-5.3
			C470.7,59.3,471.6,57.5,472.5,55.8z M450,79.4c-2.1-2.1-4.1-4.5-6.2-7.1c2,0.1,4,0.2,6.1,0.2s4.1,0,6.2-0.2
			C454.1,74.9,452.1,77.3,450,79.4z M433.5,66.4c-3.1-0.5-6.2-1-9.1-1.8c0.8-2.9,1.8-5.8,3-8.8c0.9,1.8,1.9,3.5,2.9,5.3
			C431.4,62.9,432.4,64.7,433.5,66.4z M449.9,20.2c2.1,2.1,4.1,4.5,6.2,7.1c-2-0.1-4-0.2-6.1-0.2s-4.1,0-6.2,0.2
			C445.8,24.7,447.9,22.3,449.9,20.2z M433.5,33.3c-1.1,1.7-2.2,3.5-3.2,5.3s-2,3.5-2.9,5.3c-1.2-3-2.2-5.9-3.1-8.8
			C427.3,34.3,430.3,33.7,433.5,33.3z M413.4,61c-7.8-3.3-12.9-7.7-12.9-11.2s5.1-7.9,12.9-11.2c1.9-0.8,4-1.6,6.1-2.2
			c1.3,4.3,2.9,8.9,5,13.5c-2,4.6-3.7,9.1-4.9,13.4C417.5,62.6,415.4,61.8,413.4,61z M425.4,92.7c-3-1.7-4.3-8.3-3.3-16.8
			c0.2-2.1,0.6-4.3,1.1-6.5c4.3,1.1,9.1,1.9,14.1,2.4c3,4.1,6.1,7.8,9.2,11.1c-7.2,6.7-14,10.4-18.6,10.4
			C426.9,93.3,426,93.1,425.4,92.7z M478,75.8c1,8.5-0.2,15.1-3.2,16.8c-0.7,0.4-1.5,0.6-2.5,0.6c-4.6,0-11.4-3.7-18.6-10.3
			c3.1-3.3,6.2-7,9.2-11.1c5-0.5,9.8-1.4,14.1-2.4C477.3,71.6,477.7,73.8,478,75.8z M486.5,61c-1.9,0.8-4,1.6-6.1,2.2
			c-1.3-4.3-2.9-8.9-5-13.5c2-4.6,3.7-9.1,4.9-13.4c2.2,0.7,4.3,1.4,6.2,2.3c7.8,3.3,12.9,7.7,12.9,11.2
			C499.4,53.3,494.4,57.7,486.5,61L486.5,61z"/>
		<circle fill="#009EC9" cx="450" cy="49.8" r="10.1"/>
		<path fill="#009EC9" d="M472.1,1.4"/>
	</g>
</g>
</svg>
